# xmcd
#
# Track frame offsets:
#	150
#	31200
#	48600
#	59550
#	82500
#	118050
#	140700
#	160050
#	186300
#	212100
#	235650
#	252300
#
# Disc length: 3490 seconds
#
# Revision: 1
# Processed by: cddbd v1.5.2PL0 Copyright (c) Steve Scherf et al.
# Submitted via: audiograbber 1.83.01
#
DISCID=a60da00c
DTITLE=Paul Felton - "Felts" In Retro - Looking Back
DYEAR=1900
DGENRE=Blues
TTITLE0=House Of The Rising Sun
TTITLE1=La Grange
TTITLE2=Black Betty
TTITLE3=Before You Acuse Me
TTITLE4=Stars and Scars
TTITLE5=Mail Order Mystic
TTITLE6=Jelly Swing
TTITLE7=Cruising
TTITLE8=Spring Fever
TTITLE9=Rock Me
TTITLE10=Bali Sunset
TTITLE11=Dream Lady
EXTD=
EXTT0=
EXTT1=
EXTT2=
EXTT3=
EXTT4=
EXTT5=
EXTT6=
EXTT7=
EXTT8=
EXTT9=
EXTT10=
EXTT11=
PLAYORDER=
